# xmcd CD database file
# Copyright (C) 1993-1998 Ti Kan
#
# Track frame offsets:
#	150
#	20005
#	39940
#	58805
#	78267
#
# Disc length: 1280 seconds
#
# Revision: 1
# Processed by: cddbd v1.4b41PL1 Copyright (c) Steve Scherf et al.
# Submitted via: CDValet v3.31 - Copyright (c) 1997 Greg Leichner
#
DISCID=3504fe05
DTITLE=Shaquille O'Neal - I Know I Got Skillz (Single)
DYEAR=1900
DGENRE=
TTITLE0=I Know I Got Skillz  (LP/Radio Version)
TTITLE1=I Know I Got Skillz  (Remix)
TTITLE2=I Know I Got Skillz  (LP/Radio Instrumental)
TTITLE3=I Know I Got Skillz  (Remix Instrumental)
TTITLE4=What's Up Doc? Can We Rock
EXTD=
EXTT0=
EXTT1=
EXTT2=
EXTT3=
EXTT4=
PLAYORDER=
